<svg width="152" height="36" viewBox="0 0 152 36" fill="none" xmlns="http://www.w3.org/2000/svg">
<g clip-path="url(#clip0_374_773)">
<path d="M22.4161 16.8379H19.8208V19.7188H22.4161V16.8379Z" fill="#F61E26"/>
<path d="M22.4161 20.5117H19.8208V26.0375H22.4161V20.5117Z" fill="#F61E26"/>
<path d="M25.7988 20.5117H23.2034V26.0375H25.7988V20.5117Z" fill="#F61E26"/>
<path d="M25.7988 16.8379H23.2034V19.7188H25.7988V16.8379Z" fill="#F61E26"/>
<path d="M31.5963 29.2508H8.404V14.7409L4.67627 18.49V33H35.323V18.4895L31.5963 14.7402V29.2508Z" fill="#F61E26"/>
<path d="M25.81 8.84473L23.1748 11.4959L30.9696 19.337V14.0348L25.81 8.84473Z" fill="#F61E26"/>
<path d="M20.0129 8.3154L22.6483 5.66398L19.9998 3L8.94336 14.1221V19.4241L19.9998 8.30246L20.0129 8.3154Z" fill="#F61E26"/>
<path d="M13.925 8.5865L16.8339 5.66009L14.2018 3.0127L0 17.2983L2.63548 19.9494L13.9288 8.58964L13.925 8.5865Z" fill="#F61E26"/>
<path d="M25.7976 3.0127L8.94319 19.9494L8.9021 25.3101L25.7976 8.31465L37.364 19.9494L39.9999 17.2983L25.7976 3.0127Z" fill="#F61E26"/>
</g>
<path d="M51.582 29V7.17383H59.7705C61.4502 7.17383 62.8564 7.4668 63.9893 8.05273C65.1318 8.63867 65.9961 9.45898 66.582 10.5137C67.168 11.5586 67.4609 12.7744 67.4609 14.1611C67.4609 15.5576 67.1631 16.7686 66.5674 17.7939C65.9814 18.8193 65.1123 19.6104 63.96 20.167C62.8076 20.7236 61.3916 21.002 59.7119 21.002H53.8965V17.7354H59.1699C60.1562 17.7354 60.9619 17.5986 61.5869 17.3252C62.2217 17.0518 62.6855 16.6514 62.9785 16.124C63.2812 15.5869 63.4326 14.9326 63.4326 14.1611C63.4326 13.3896 63.2812 12.7305 62.9785 12.1836C62.6758 11.627 62.2119 11.207 61.5869 10.9238C60.9619 10.6309 60.1514 10.4844 59.1553 10.4844H55.5371V29H51.582ZM63.8428 29L58.5547 19.0977H62.8613L68.2666 29H63.8428ZM76.7188 29.3223C75.1172 29.3223 73.7305 28.9707 72.5586 28.2676C71.3867 27.5645 70.4785 26.5781 69.834 25.3086C69.1992 24.0391 68.8818 22.5645 68.8818 20.8848C68.8818 19.1953 69.1992 17.7158 69.834 16.4463C70.4785 15.167 71.3867 14.1758 72.5586 13.4727C73.7305 12.7695 75.1172 12.418 76.7188 12.418C78.3203 12.418 79.707 12.7695 80.8789 13.4727C82.0508 14.1758 82.959 15.167 83.6035 16.4463C84.248 17.7158 84.5703 19.1953 84.5703 20.8848C84.5703 22.5645 84.248 24.0391 83.6035 25.3086C82.959 26.5781 82.0508 27.5645 80.8789 28.2676C79.707 28.9707 78.3203 29.3223 76.7188 29.3223ZM76.7188 26.2168C77.6074 26.2168 78.3398 25.9824 78.916 25.5137C79.4922 25.0352 79.9219 24.3906 80.2051 23.5801C80.498 22.7695 80.6445 21.8711 80.6445 20.8848C80.6445 19.8789 80.498 18.9707 80.2051 18.1602C79.9219 17.3496 79.4922 16.71 78.916 16.2412C78.3398 15.7627 77.6074 15.5234 76.7188 15.5234C75.8496 15.5234 75.1221 15.7627 74.5361 16.2412C73.9502 16.71 73.5107 17.3496 73.2178 18.1602C72.9346 18.9707 72.793 19.8789 72.793 20.8848C72.793 21.8711 72.9346 22.7695 73.2178 23.5801C73.5107 24.3906 73.9502 25.0352 74.5361 25.5137C75.1221 25.9824 75.8496 26.2168 76.7188 26.2168ZM93.8281 29.3223C92.2266 29.3223 90.8398 28.9707 89.668 28.2676C88.4961 27.5645 87.5879 26.5781 86.9434 25.3086C86.3086 24.0391 85.9912 22.5645 85.9912 20.8848C85.9912 19.1953 86.3086 17.7158 86.9434 16.4463C87.5879 15.167 88.4961 14.1758 89.668 13.4727C90.8398 12.7695 92.2266 12.418 93.8281 12.418C95.4297 12.418 96.8164 12.7695 97.9883 13.4727C99.1602 14.1758 100.068 15.167 100.713 16.4463C101.357 17.7158 101.68 19.1953 101.68 20.8848C101.68 22.5645 101.357 24.0391 100.713 25.3086C100.068 26.5781 99.1602 27.5645 97.9883 28.2676C96.8164 28.9707 95.4297 29.3223 93.8281 29.3223ZM93.8281 26.2168C94.7168 26.2168 95.4492 25.9824 96.0254 25.5137C96.6016 25.0352 97.0312 24.3906 97.3145 23.5801C97.6074 22.7695 97.7539 21.8711 97.7539 20.8848C97.7539 19.8789 97.6074 18.9707 97.3145 18.1602C97.0312 17.3496 96.6016 16.71 96.0254 16.2412C95.4492 15.7627 94.7168 15.5234 93.8281 15.5234C92.959 15.5234 92.2314 15.7627 91.6455 16.2412C91.0596 16.71 90.6201 17.3496 90.3271 18.1602C90.0439 18.9707 89.9023 19.8789 89.9023 20.8848C89.9023 21.8711 90.0439 22.7695 90.3271 23.5801C90.6201 24.3906 91.0596 25.0352 91.6455 25.5137C92.2314 25.9824 92.959 26.2168 93.8281 26.2168ZM112.124 12.623V15.6113H102.471V12.623H112.124ZM104.873 29V11.085C104.873 9.98145 105.103 9.06348 105.562 8.33105C106.021 7.59863 106.636 7.05176 107.407 6.69043C108.188 6.3291 109.048 6.14844 109.985 6.14844C110.659 6.14844 111.255 6.20215 111.772 6.30957C112.3 6.41699 112.686 6.51465 112.93 6.60254L112.139 9.59082C111.982 9.53223 111.782 9.47852 111.538 9.42969C111.294 9.37109 111.016 9.3418 110.703 9.3418C109.99 9.3418 109.478 9.51758 109.165 9.86914C108.862 10.2207 108.711 10.7188 108.711 11.3633V29H104.873ZM114.058 29V12.623H117.91V29H114.058ZM115.991 10.3232C115.376 10.3232 114.849 10.1182 114.409 9.70801C113.97 9.29785 113.75 8.80469 113.75 8.22852C113.75 7.64258 113.97 7.14453 114.409 6.73438C114.849 6.32422 115.376 6.11914 115.991 6.11914C116.597 6.11914 117.119 6.32422 117.559 6.73438C117.998 7.14453 118.218 7.6377 118.218 8.21387C118.218 8.7998 117.998 9.29785 117.559 9.70801C117.119 10.1182 116.597 10.3232 115.991 10.3232ZM123.916 12.623L127.212 18.6875L130.566 12.623H134.653L129.731 20.8262L134.741 29H130.684L127.212 23.1113L123.799 29H119.712L124.678 20.8262L119.829 12.623H123.916ZM143.047 29.3223C141.445 29.3223 140.059 28.9707 138.887 28.2676C137.715 27.5645 136.807 26.5781 136.162 25.3086C135.527 24.0391 135.21 22.5645 135.21 20.8848C135.21 19.1953 135.527 17.7158 136.162 16.4463C136.807 15.167 137.715 14.1758 138.887 13.4727C140.059 12.7695 141.445 12.418 143.047 12.418C144.648 12.418 146.035 12.7695 147.207 13.4727C148.379 14.1758 149.287 15.167 149.932 16.4463C150.576 17.7158 150.898 19.1953 150.898 20.8848C150.898 22.5645 150.576 24.0391 149.932 25.3086C149.287 26.5781 148.379 27.5645 147.207 28.2676C146.035 28.9707 144.648 29.3223 143.047 29.3223ZM143.047 26.2168C143.936 26.2168 144.668 25.9824 145.244 25.5137C145.82 25.0352 146.25 24.3906 146.533 23.5801C146.826 22.7695 146.973 21.8711 146.973 20.8848C146.973 19.8789 146.826 18.9707 146.533 18.1602C146.25 17.3496 145.82 16.71 145.244 16.2412C144.668 15.7627 143.936 15.5234 143.047 15.5234C142.178 15.5234 141.45 15.7627 140.864 16.2412C140.278 16.71 139.839 17.3496 139.546 18.1602C139.263 18.9707 139.121 19.8789 139.121 20.8848C139.121 21.8711 139.263 22.7695 139.546 23.5801C139.839 24.3906 140.278 25.0352 140.864 25.5137C141.45 25.9824 142.178 26.2168 143.047 26.2168Z" fill="white"/>
<defs>
<clipPath id="clip0_374_773">
<rect width="40" height="30" fill="white" transform="translate(0 3)"/>
</clipPath>
</defs>
</svg>
