<svg width="188" height="42" viewBox="0 0 188 42" fill="none" xmlns="http://www.w3.org/2000/svg">
<g clip-path="url(#clip0_351_1494)">
<path d="M30.2617 19.4505H26.7581V23.2917H30.2617V19.4505Z" fill="#F61E26"/>
<path d="M30.2617 24.3485H26.7581V31.7162H30.2617V24.3485Z" fill="#F61E26"/>
<path d="M34.8285 24.3485H31.3247V31.7162H34.8285V24.3485Z" fill="#F61E26"/>
<path d="M34.8285 19.4505H31.3247V23.2917H34.8285V19.4505Z" fill="#F61E26"/>
<path d="M42.655 36.001H11.3454V16.6544L6.31299 21.6532V41H47.6861V21.6526L42.655 16.6536V36.001Z" fill="#F61E26"/>
<path d="M34.8437 8.79321L31.2861 12.3281L41.8091 22.7829V15.7132L34.8437 8.79321Z" fill="#F61E26"/>
<path d="M27.0174 8.0872L30.5751 4.55198L26.9997 1L12.0735 15.8295V22.8988L26.9997 8.06995L27.0174 8.0872Z" fill="#F61E26"/>
<path d="M18.7987 8.44883L22.7258 4.54695L19.1725 1.01708L0 20.0645L3.5579 23.5994L18.8039 8.45302L18.7987 8.44883Z" fill="#F61E26"/>
<path d="M34.8268 1.01708L12.0733 23.5994L12.0178 30.7469L34.8268 8.08636L50.4413 23.5994L53.9999 20.0645L34.8268 1.01708Z" fill="#F61E26"/>
</g>
<path d="M70.8457 34V8.53613H80.3989C82.3586 8.53613 83.9992 8.87793 85.3208 9.56152C86.6538 10.2451 87.6621 11.2021 88.3457 12.4326C89.0293 13.6517 89.3711 15.0701 89.3711 16.688C89.3711 18.3172 89.0236 19.73 88.3286 20.9263C87.645 22.1226 86.631 23.0454 85.2866 23.6948C83.9422 24.3442 82.2902 24.6689 80.3306 24.6689H73.5459V20.8579H79.6982C80.849 20.8579 81.7889 20.6984 82.5181 20.3794C83.2586 20.0604 83.7998 19.5933 84.1416 18.978C84.4948 18.3514 84.6714 17.5881 84.6714 16.688C84.6714 15.7879 84.4948 15.0189 84.1416 14.3809C83.7884 13.7314 83.2472 13.2415 82.5181 12.9111C81.7889 12.5693 80.8433 12.3984 79.6812 12.3984H75.46V34H70.8457ZM85.1499 34L78.9805 22.4473H84.0049L90.311 34H85.1499ZM100.172 34.376C98.3034 34.376 96.6855 33.9658 95.3184 33.1455C93.9512 32.3252 92.8916 31.1745 92.1396 29.6934C91.3991 28.2122 91.0288 26.4919 91.0288 24.5322C91.0288 22.5612 91.3991 20.8351 92.1396 19.354C92.8916 17.8615 93.9512 16.7051 95.3184 15.8848C96.6855 15.0645 98.3034 14.6543 100.172 14.6543C102.04 14.6543 103.658 15.0645 105.025 15.8848C106.393 16.7051 107.452 17.8615 108.204 19.354C108.956 20.8351 109.332 22.5612 109.332 24.5322C109.332 26.4919 108.956 28.2122 108.204 29.6934C107.452 31.1745 106.393 32.3252 105.025 33.1455C103.658 33.9658 102.04 34.376 100.172 34.376ZM100.172 30.7529C101.209 30.7529 102.063 30.4795 102.735 29.9326C103.408 29.3743 103.909 28.6224 104.239 27.6768C104.581 26.7311 104.752 25.6829 104.752 24.5322C104.752 23.3587 104.581 22.2992 104.239 21.3535C103.909 20.4079 103.408 19.6616 102.735 19.1147C102.063 18.5565 101.209 18.2773 100.172 18.2773C99.1579 18.2773 98.3091 18.5565 97.6255 19.1147C96.9419 19.6616 96.4292 20.4079 96.0874 21.3535C95.757 22.2992 95.5918 23.3587 95.5918 24.5322C95.5918 25.6829 95.757 26.7311 96.0874 27.6768C96.4292 28.6224 96.9419 29.3743 97.6255 29.9326C98.3091 30.4795 99.1579 30.7529 100.172 30.7529ZM120.133 34.376C118.264 34.376 116.646 33.9658 115.279 33.1455C113.912 32.3252 112.853 31.1745 112.101 29.6934C111.36 28.2122 110.99 26.4919 110.99 24.5322C110.99 22.5612 111.36 20.8351 112.101 19.354C112.853 17.8615 113.912 16.7051 115.279 15.8848C116.646 15.0645 118.264 14.6543 120.133 14.6543C122.001 14.6543 123.619 15.0645 124.986 15.8848C126.354 16.7051 127.413 17.8615 128.165 19.354C128.917 20.8351 129.293 22.5612 129.293 24.5322C129.293 26.4919 128.917 28.2122 128.165 29.6934C127.413 31.1745 126.354 32.3252 124.986 33.1455C123.619 33.9658 122.001 34.376 120.133 34.376ZM120.133 30.7529C121.17 30.7529 122.024 30.4795 122.696 29.9326C123.368 29.3743 123.87 28.6224 124.2 27.6768C124.542 26.7311 124.713 25.6829 124.713 24.5322C124.713 23.3587 124.542 22.2992 124.2 21.3535C123.87 20.4079 123.368 19.6616 122.696 19.1147C122.024 18.5565 121.17 18.2773 120.133 18.2773C119.119 18.2773 118.27 18.5565 117.586 19.1147C116.903 19.6616 116.39 20.4079 116.048 21.3535C115.718 22.2992 115.553 23.3587 115.553 24.5322C115.553 25.6829 115.718 26.7311 116.048 27.6768C116.39 28.6224 116.903 29.3743 117.586 29.9326C118.27 30.4795 119.119 30.7529 120.133 30.7529ZM141.478 14.8936V18.3799H130.216V14.8936H141.478ZM133.019 34V13.0991C133.019 11.8117 133.286 10.7407 133.822 9.88623C134.357 9.03174 135.075 8.39372 135.975 7.97217C136.887 7.55062 137.889 7.33984 138.983 7.33984C139.769 7.33984 140.464 7.40251 141.068 7.52783C141.683 7.65316 142.133 7.76709 142.418 7.86963L141.495 11.356C141.313 11.2876 141.079 11.2249 140.794 11.168C140.51 11.0996 140.185 11.0654 139.82 11.0654C138.989 11.0654 138.39 11.2705 138.026 11.6807C137.673 12.0908 137.496 12.6719 137.496 13.4238V34H133.019ZM143.734 34V14.8936H148.229V34H143.734ZM145.99 12.2104C145.272 12.2104 144.657 11.9712 144.144 11.4927C143.631 11.0142 143.375 10.4388 143.375 9.7666C143.375 9.08301 143.631 8.50195 144.144 8.02344C144.657 7.54492 145.272 7.30566 145.99 7.30566C146.696 7.30566 147.306 7.54492 147.818 8.02344C148.331 8.50195 148.587 9.07731 148.587 9.74951C148.587 10.4331 148.331 11.0142 147.818 11.4927C147.306 11.9712 146.696 12.2104 145.99 12.2104ZM155.235 14.8936L159.081 21.9688L162.994 14.8936H167.762L162.02 24.4639L167.865 34H163.131L159.081 27.1299L155.099 34H150.331L156.124 24.4639L150.467 14.8936H155.235ZM177.555 34.376C175.686 34.376 174.068 33.9658 172.701 33.1455C171.334 32.3252 170.274 31.1745 169.522 29.6934C168.782 28.2122 168.412 26.4919 168.412 24.5322C168.412 22.5612 168.782 20.8351 169.522 19.354C170.274 17.8615 171.334 16.7051 172.701 15.8848C174.068 15.0645 175.686 14.6543 177.555 14.6543C179.423 14.6543 181.041 15.0645 182.408 15.8848C183.775 16.7051 184.835 17.8615 185.587 19.354C186.339 20.8351 186.715 22.5612 186.715 24.5322C186.715 26.4919 186.339 28.2122 185.587 29.6934C184.835 31.1745 183.775 32.3252 182.408 33.1455C181.041 33.9658 179.423 34.376 177.555 34.376ZM177.555 30.7529C178.591 30.7529 179.446 30.4795 180.118 29.9326C180.79 29.3743 181.292 28.6224 181.622 27.6768C181.964 26.7311 182.135 25.6829 182.135 24.5322C182.135 23.3587 181.964 22.2992 181.622 21.3535C181.292 20.4079 180.79 19.6616 180.118 19.1147C179.446 18.5565 178.591 18.2773 177.555 18.2773C176.541 18.2773 175.692 18.5565 175.008 19.1147C174.325 19.6616 173.812 20.4079 173.47 21.3535C173.14 22.2992 172.975 23.3587 172.975 24.5322C172.975 25.6829 173.14 26.7311 173.47 27.6768C173.812 28.6224 174.325 29.3743 175.008 29.9326C175.692 30.4795 176.541 30.7529 177.555 30.7529Z" fill="white"/>
<defs>
<clipPath id="clip0_351_1494">
<rect width="54" height="40" fill="white" transform="translate(0 1)"/>
</clipPath>
</defs>
</svg>
