<svg width="789" height="194" viewBox="0 0 789 194" fill="none" xmlns="http://www.w3.org/2000/svg">
<path d="M93.3594 193.262C78.4505 193.262 65.2018 191.243 53.6133 187.207C42.0898 183.171 32.3242 177.246 24.3164 169.434C16.3737 161.621 10.319 152.083 6.15234 140.82C2.05078 129.492 0 116.602 0 102.148C0 88.0208 2.08333 75.2604 6.25 63.8672C10.4167 52.474 16.5039 42.7083 24.5117 34.5703C32.5195 26.3672 42.2852 20.1172 53.8086 15.8203C65.3971 11.4583 78.5482 9.27734 93.2617 9.27734C107.064 9.27734 119.336 11.3932 130.078 15.625C140.885 19.7917 149.967 25.651 157.324 33.2031C164.746 40.6901 170.378 49.4792 174.219 59.5703C178.06 69.5964 179.98 80.4362 179.98 92.0898C179.98 100.098 179.329 107.747 178.027 115.039C176.725 122.331 174.512 128.841 171.387 134.57C168.262 140.234 163.997 144.727 158.594 148.047C153.255 151.302 146.517 152.93 138.379 152.93C134.408 152.93 130.762 152.344 127.441 151.172C124.121 149.935 121.387 148.145 119.238 145.801C117.155 143.457 115.853 140.592 115.332 137.207H114.551C113.509 139.876 111.621 142.35 108.887 144.629C106.152 146.842 102.734 148.633 98.6328 150C94.5964 151.367 90.0716 152.051 85.0586 152.051C76.1393 152.051 68.457 149.902 62.0117 145.605C55.6315 141.243 50.7487 135.254 47.3633 127.637C43.9779 120.02 42.2852 111.198 42.2852 101.172C42.2852 91.0807 44.2708 82.3242 48.2422 74.9023C52.2135 67.4154 57.5521 61.6536 64.2578 57.6172C70.9635 53.5807 78.3854 51.5625 86.5234 51.5625C93.099 51.5625 98.6979 52.7018 103.32 54.9805C108.008 57.194 111.068 59.4727 112.5 61.8164H113.574V53.9062H133.301V121.484C133.301 125 134.147 127.865 135.84 130.078C137.533 132.292 139.909 133.398 142.969 133.398C146.81 133.398 149.87 131.901 152.148 128.906C154.492 125.846 156.185 121.191 157.227 114.941C158.268 108.626 158.789 100.586 158.789 90.8203C158.789 82.7474 157.715 75.4557 155.566 68.9453C153.418 62.3698 150.391 56.6081 146.484 51.6602C142.578 46.6471 137.891 42.4805 132.422 39.1602C126.953 35.7747 120.866 33.2357 114.16 31.543C107.52 29.8503 100.391 29.0039 92.7734 29.0039C81.1849 29.0039 70.9961 30.7943 62.207 34.375C53.418 37.8906 46.0286 42.8711 40.0391 49.3164C34.1146 55.7617 29.6224 63.444 26.5625 72.3633C23.5677 81.2826 22.0703 91.1133 22.0703 101.855C22.0703 113.314 23.6328 123.503 26.7578 132.422C29.9479 141.276 34.6029 148.73 40.7227 154.785C46.8424 160.905 54.3945 165.527 63.3789 168.652C72.4284 171.777 82.8451 173.34 94.6289 173.34C100.033 173.34 105.306 172.917 110.449 172.07C115.592 171.224 120.215 170.215 124.316 169.043C128.483 167.871 131.673 166.862 133.887 166.016L139.844 184.082C136.914 185.579 132.975 187.012 128.027 188.379C123.079 189.811 117.578 190.983 111.523 191.895C105.534 192.806 99.4792 193.262 93.3594 193.262ZM88.3789 131.641C94.3685 131.641 99.1536 130.469 102.734 128.125C106.315 125.781 108.887 122.298 110.449 117.676C112.012 112.988 112.793 107.227 112.793 100.391C112.793 93.8802 111.979 88.5742 110.352 84.4727C108.789 80.306 106.217 77.2461 102.637 75.293C99.1211 73.3398 94.4336 72.3633 88.5742 72.3633C83.3008 72.3633 78.776 73.5677 75 75.9766C71.2891 78.3854 68.4245 81.7057 66.4062 85.9375C64.4531 90.1693 63.4766 94.987 63.4766 100.391C63.4766 105.794 64.2578 110.872 65.8203 115.625C67.4479 120.378 70.0521 124.251 73.6328 127.246C77.2786 130.176 82.194 131.641 88.3789 131.641ZM186.777 152.539V7.03125H241.367C252.565 7.03125 261.94 8.98438 269.492 12.8906C277.109 16.7969 282.871 22.2656 286.777 29.2969C290.684 36.263 292.637 44.3685 292.637 53.6133C292.637 62.9232 290.651 70.9961 286.68 77.832C282.773 84.668 276.979 89.9414 269.297 93.6523C261.615 97.3633 252.174 99.2188 240.977 99.2188H202.207V77.4414H237.363C243.939 77.4414 249.31 76.5299 253.477 74.707C257.708 72.8841 260.801 70.2148 262.754 66.6992C264.772 63.1185 265.781 58.7565 265.781 53.6133C265.781 48.4701 264.772 44.0755 262.754 40.4297C260.736 36.7188 257.643 33.9193 253.477 32.0312C249.31 30.0781 243.906 29.1016 237.266 29.1016H213.145V152.539H186.777ZM268.516 152.539L233.262 86.5234H261.973L298.008 152.539H268.516ZM344.355 154.688C333.678 154.688 324.434 152.344 316.621 147.656C308.809 142.969 302.754 136.393 298.457 127.93C294.225 119.466 292.109 109.635 292.109 98.4375C292.109 87.1745 294.225 77.3112 298.457 68.8477C302.754 60.319 308.809 53.7109 316.621 49.0234C324.434 44.3359 333.678 41.9922 344.355 41.9922C355.033 41.9922 364.277 44.3359 372.09 49.0234C379.902 53.7109 385.957 60.319 390.254 68.8477C394.551 77.3112 396.699 87.1745 396.699 98.4375C396.699 109.635 394.551 119.466 390.254 127.93C385.957 136.393 379.902 142.969 372.09 147.656C364.277 152.344 355.033 154.688 344.355 154.688ZM344.355 133.984C350.28 133.984 355.163 132.422 359.004 129.297C362.845 126.107 365.71 121.81 367.598 116.406C369.551 111.003 370.527 105.013 370.527 98.4375C370.527 91.7318 369.551 85.6771 367.598 80.2734C365.71 74.8698 362.845 70.6055 359.004 67.4805C355.163 64.2904 350.28 62.6953 344.355 62.6953C338.561 62.6953 333.711 64.2904 329.805 67.4805C325.898 70.6055 322.969 74.8698 321.016 80.2734C319.128 85.6771 318.184 91.7318 318.184 98.4375C318.184 105.013 319.128 111.003 321.016 116.406C322.969 121.81 325.898 126.107 329.805 129.297C333.711 132.422 338.561 133.984 344.355 133.984ZM448.418 154.688C437.741 154.688 428.496 152.344 420.684 147.656C412.871 142.969 406.816 136.393 402.52 127.93C398.288 119.466 396.172 109.635 396.172 98.4375C396.172 87.1745 398.288 77.3112 402.52 68.8477C406.816 60.319 412.871 53.7109 420.684 49.0234C428.496 44.3359 437.741 41.9922 448.418 41.9922C459.095 41.9922 468.34 44.3359 476.152 49.0234C483.965 53.7109 490.02 60.319 494.316 68.8477C498.613 77.3112 500.762 87.1745 500.762 98.4375C500.762 109.635 498.613 119.466 494.316 127.93C490.02 136.393 483.965 142.969 476.152 147.656C468.34 152.344 459.095 154.688 448.418 154.688ZM448.418 133.984C454.342 133.984 459.225 132.422 463.066 129.297C466.908 126.107 469.772 121.81 471.66 116.406C473.613 111.003 474.59 105.013 474.59 98.4375C474.59 91.7318 473.613 85.6771 471.66 80.2734C469.772 74.8698 466.908 70.6055 463.066 67.4805C459.225 64.2904 454.342 62.6953 448.418 62.6953C442.624 62.6953 437.773 64.2904 433.867 67.4805C429.961 70.6055 427.031 74.8698 425.078 80.2734C423.19 85.6771 422.246 91.7318 422.246 98.4375C422.246 105.013 423.19 111.003 425.078 116.406C427.031 121.81 429.961 126.107 433.867 129.297C437.773 132.422 442.624 133.984 448.418 133.984ZM560.391 43.3594V63.2812H496.035V43.3594H560.391ZM512.051 152.539V33.1055C512.051 25.7487 513.581 19.6289 516.641 14.7461C519.701 9.86328 523.802 6.21745 528.945 3.80859C534.154 1.39974 539.883 0.195312 546.133 0.195312C550.625 0.195312 554.596 0.553385 558.047 1.26953C561.562 1.98568 564.134 2.63672 565.762 3.22266L560.488 23.1445C559.447 22.7539 558.112 22.3958 556.484 22.0703C554.857 21.6797 553.001 21.4844 550.918 21.4844C546.165 21.4844 542.747 22.6562 540.664 25C538.646 27.3438 537.637 30.6641 537.637 34.9609V152.539H512.051ZM563.281 152.539V43.3594H588.965V152.539H563.281ZM576.172 28.0273C572.07 28.0273 568.555 26.6602 565.625 23.9258C562.695 21.1914 561.23 17.9036 561.23 14.0625C561.23 10.1562 562.695 6.83594 565.625 4.10156C568.555 1.36719 572.07 0 576.172 0C580.208 0 583.691 1.36719 586.621 4.10156C589.551 6.83594 591.016 10.1237 591.016 13.9648C591.016 17.8711 589.551 21.1914 586.621 23.9258C583.691 26.6602 580.208 28.0273 576.172 28.0273ZM619.004 43.3594L640.977 83.7891L663.34 43.3594H690.586L657.773 98.0469L691.172 152.539H664.121L640.977 113.281L618.223 152.539H590.977L624.082 98.0469L591.758 43.3594H619.004ZM736.543 154.688C725.866 154.688 716.621 152.344 708.809 147.656C700.996 142.969 694.941 136.393 690.645 127.93C686.413 119.466 684.297 109.635 684.297 98.4375C684.297 87.1745 686.413 77.3112 690.645 68.8477C694.941 60.319 700.996 53.7109 708.809 49.0234C716.621 44.3359 725.866 41.9922 736.543 41.9922C747.22 41.9922 756.465 44.3359 764.277 49.0234C772.09 53.7109 778.145 60.319 782.441 68.8477C786.738 77.3112 788.887 87.1745 788.887 98.4375C788.887 109.635 786.738 119.466 782.441 127.93C778.145 136.393 772.09 142.969 764.277 147.656C756.465 152.344 747.22 154.688 736.543 154.688ZM736.543 133.984C742.467 133.984 747.35 132.422 751.191 129.297C755.033 126.107 757.897 121.81 759.785 116.406C761.738 111.003 762.715 105.013 762.715 98.4375C762.715 91.7318 761.738 85.6771 759.785 80.2734C757.897 74.8698 755.033 70.6055 751.191 67.4805C747.35 64.2904 742.467 62.6953 736.543 62.6953C730.749 62.6953 725.898 64.2904 721.992 67.4805C718.086 70.6055 715.156 74.8698 713.203 80.2734C711.315 85.6771 710.371 91.7318 710.371 98.4375C710.371 105.013 711.315 111.003 713.203 116.406C715.156 121.81 718.086 126.107 721.992 129.297C725.898 132.422 730.749 133.984 736.543 133.984Z" fill="white"/>
</svg>
