<svg width="119" height="36" viewBox="0 0 119 36" fill="none" xmlns="http://www.w3.org/2000/svg">
<g clip-path="url(#clip0_21666_51)">
<path opacity="0.3" d="M56.9222 12.1954C57.1417 10.7981 57.4334 8.88911 57.7541 6.98604C57.8555 6.40399 58.0149 5.83381 58.2946 5.30354C58.6951 4.54622 59.3571 4.17825 60.1721 4.10107C61.4264 3.97659 62.6909 3.87707 63.9466 3.7834C64.4063 3.74788 64.8572 3.7182 65.3166 3.79708C66.4093 3.99049 66.9213 4.4846 67.1549 5.57793C67.3714 6.60667 67.2485 7.63457 67.0359 8.62118C66.4991 11.1515 65.9044 13.6699 65.2806 16.1824C64.3494 19.9291 63.9271 23.6962 64.8137 27.5179C64.9558 28.1269 65.021 28.7432 64.9629 29.3723C64.8376 30.827 64.0891 31.5893 62.6464 31.637C61.8577 31.6585 61.0721 31.5891 60.2834 31.5725C59.1628 31.5565 58.0407 31.5478 56.9186 31.5391C56.8215 31.5345 56.7301 31.5387 56.6345 31.5267C55.1271 31.3704 54.5666 30.5153 54.9777 29.0276C55.3769 27.5985 56.1006 26.3198 56.7345 24.9998C57.4572 23.4997 58.0814 21.964 58.3957 20.3191C58.4265 20.1652 58.5474 19.9381 58.3389 19.8496C58.1651 19.7758 58.0283 19.9691 57.925 20.1082C57.4234 20.7303 57.0679 21.4511 56.6935 22.1527C56.2348 23.0126 55.7427 23.8503 55.0784 24.5689C54.8952 24.7679 54.7048 24.9654 54.4856 25.1189C53.8001 25.6041 53.0639 25.4762 52.5756 24.7885C52.1985 24.261 52.0274 23.646 51.8419 23.028C51.6047 22.2163 51.3762 21.3987 51.1142 20.5972C51.0035 20.2464 50.8361 19.9145 50.6832 19.5855C50.6255 19.4593 50.552 19.2992 50.394 19.2973C50.2142 19.291 50.192 19.4772 50.1366 19.6033C49.9442 20.0369 49.9401 20.5092 49.939 20.9669C49.9258 22.8414 50.1416 24.7018 50.4125 26.5506C50.5394 27.4236 50.575 28.3008 50.5265 29.1837C50.4551 30.5197 49.7311 31.31 48.3737 31.4973C47.2178 31.6572 46.0336 31.5443 44.8735 31.688C44.3862 31.7484 43.899 31.7707 43.4075 31.7768C41.949 31.7907 41.232 30.9265 41.4589 29.4544C41.6342 28.3152 41.9674 27.2159 42.2659 26.1019C42.4664 25.3265 42.7089 24.5673 42.8732 23.7845C43.5493 20.596 44.2109 17.4045 44.7132 14.1803C44.9577 12.5821 44.9878 10.9629 45.1497 9.36303C45.2283 8.63131 45.2765 7.90098 45.3696 7.17223C45.5733 5.6649 46.486 4.76071 47.8773 4.36669C49.4035 3.93927 50.9598 3.663 52.5573 3.70805C54.0867 3.7544 54.8677 4.56307 54.8958 6.11792C54.9108 7.09776 54.6823 8.05059 54.5784 9.02133C54.4138 10.5596 54.2476 12.1051 54.3366 13.6572C54.3839 14.4758 54.524 15.2828 54.9209 16.0128C55.224 16.5709 55.5328 16.5732 55.8271 16.0077C56.366 14.9735 56.5703 13.8402 56.8976 12.2056L56.9222 12.1954Z" fill="#101010"/>
<path opacity="0.3" d="M87.4446 20.462C87.1028 22.7346 87.1015 25.0389 87.1843 27.3375C87.2131 28.0226 87.2564 28.7106 87.2402 29.3941C87.2197 30.6642 86.3812 31.4615 85.1303 31.3807C83.975 31.3118 82.8239 31.2972 81.6781 31.4821C81.1328 31.5687 80.6082 31.4765 80.0881 31.3241C79.1406 31.046 78.5615 30.1337 78.625 29.0631C78.6883 28.0688 79.05 27.1661 79.4118 26.2635C80.952 22.4508 82.1446 18.5287 82.7939 14.4571C83.1281 12.3737 83.3811 10.2812 83.6196 8.18582C83.744 7.11246 84.0118 6.07612 84.7258 5.22278C85.3393 4.49385 86.1361 4.13062 87.0582 4.12118C88.3964 4.10545 89.7432 4.12201 91.0827 4.17523C92.3627 4.22389 93.1089 5.0178 93.5265 6.17173C93.9729 7.40786 93.8756 8.68517 93.8 9.96694C93.6852 11.8588 93.4268 13.7517 93.6179 15.6605C93.6547 16.0419 93.7291 16.4235 93.8689 16.7803C94.072 17.3103 94.3343 17.3564 94.6631 16.882C95.0981 16.2538 95.2826 15.5209 95.3873 14.7716C95.6692 12.7233 95.6902 10.6596 95.8228 8.60349C95.8907 7.51092 96.0876 6.4524 96.664 5.49457C97.1968 4.60411 97.9866 4.12498 98.9959 4.05709C99.9746 3.99059 100.946 3.92261 101.929 3.98667C103.621 4.08916 104.538 5.23113 104.275 6.92459C104.102 8.04917 103.649 9.07038 103.19 10.0828C101.885 12.9441 100.901 15.9016 100.406 19.0129C99.9233 22.0655 99.8999 25.1207 100.558 28.1629C100.605 28.3787 100.658 28.6032 100.675 28.8203C100.785 30.0791 100.113 30.9105 98.8778 31.0923C98.2556 31.1861 97.6425 31.1215 97.0396 31.0437C95.9294 30.9001 94.8346 30.981 93.7396 31.1763C92.8403 31.3354 91.9238 31.4299 91.0199 31.1225C89.806 30.7059 89.1629 29.8492 89.0399 28.5801C88.9393 27.6132 89.0982 26.669 89.2498 25.7234C89.5765 23.7528 89.8597 21.7734 89.7558 19.7681C89.7255 19.1285 89.6647 18.4903 89.4386 17.8869C89.3392 17.6299 89.2515 17.3144 88.9631 17.2858C88.6674 17.2557 88.5101 17.5516 88.3805 17.7845C87.9131 18.6121 87.6572 19.5135 87.4258 20.4428L87.4446 20.462Z" fill="#101010"/>
<path opacity="0.3" d="M22.3692 20.6997C21.8757 22.7123 21.4952 24.7634 20.8598 26.7317C20.3631 28.2705 19.642 29.6871 18.3362 30.7091C17.3717 31.4577 16.2444 31.8143 15.0738 32.0475C12.4354 32.5675 9.867 32.3234 7.43564 31.1689C4.35697 29.7062 2.7032 27.1543 2.18366 23.797C1.92389 22.1184 2.06858 20.454 2.29736 18.7839C2.76374 15.3997 3.81386 12.2268 5.53467 9.2829C6.87403 7.00101 8.71788 5.32616 11.2396 4.48466C12.5165 4.05955 13.8477 3.92793 15.1769 4.03245C16.9279 4.17763 18.6762 4.22306 20.4236 4.04701C20.8311 4.00842 21.2428 4.02412 21.653 4.04714C22.9446 4.11343 23.7505 4.79749 24.075 6.07732C24.3219 7.06654 24.263 8.03886 23.978 9.01062C23.6198 10.2345 23.2746 11.4686 22.818 12.657C22.1803 14.3349 20.8564 15.0327 19.2961 14.5756C18.776 14.4232 18.3128 14.1375 17.8932 13.7844C17.2161 13.2107 16.5507 12.6165 15.8939 12.0164C15.5308 11.6825 15.1561 11.3692 14.7421 11.1012C13.6782 10.4253 12.7327 10.5139 11.8157 11.4019C10.7404 12.4406 10.0442 13.7326 9.53344 15.1159C8.58927 17.6467 8.13493 20.2549 8.47482 22.9649C8.55303 23.5914 8.72122 24.183 8.97497 24.7615C9.72467 26.4795 11.1297 26.9964 12.7744 26.1277C13.7862 25.5949 14.5117 24.7592 14.9463 23.6807C15.0032 23.5474 15.0311 23.4081 15.0532 23.26C15.1313 22.7571 14.9288 22.563 14.4414 22.6615C14.0004 22.7543 13.6099 22.9719 13.2108 23.1571C11.3139 24.0046 10.0313 23.2152 9.98998 21.1235C9.96122 19.8356 10.16 18.5791 10.8413 17.4367C11.4527 16.4174 12.3355 15.8505 13.4827 15.6964C15.5928 15.4039 17.7035 15.4854 19.8181 15.7356C20.2747 15.7911 20.7092 15.9564 21.135 16.1276C22.3429 16.6117 22.8925 17.7469 22.667 19.2879C22.5948 19.7615 22.4791 20.2262 22.3852 20.6953L22.3692 20.6997Z" fill="#101010"/>
<path opacity="0.3" d="M40.2832 29.3987C40.2612 29.5086 40.2392 29.6186 40.2172 29.7285C39.9591 30.9424 39.3707 31.4323 38.165 31.2386C35.0593 30.7394 31.9894 31.0413 28.9234 31.5118C27.5775 31.7167 26.2146 31.7808 24.8714 31.4826C23.5137 31.1815 22.8926 30.2148 23.1323 28.8293C23.3867 27.3705 24.0944 26.0962 24.6833 24.7746C25.3976 23.1659 25.9845 21.5158 26.3946 19.8065C26.9291 17.5887 26.8447 15.3355 26.7154 13.0807C26.6223 11.4363 26.3914 9.8017 26.465 8.15324C26.485 7.67659 26.4992 7.19112 26.6366 6.7309C27.0985 5.21541 27.9932 4.51359 29.5752 4.41046C30.9353 4.32292 32.2861 4.47003 33.6443 4.58049C35.604 4.73793 37.5451 4.79997 39.4917 4.3824C41.5979 3.92122 42.699 4.82603 42.8141 7.00154C42.9151 8.94526 42.4555 10.7512 41.4063 12.3752C40.7368 13.4208 39.6298 13.751 38.4652 13.3521C37.3643 12.9738 36.3901 12.3392 35.3286 11.8775C34.28 11.426 33.4662 11.6484 32.797 12.5796C32.2631 13.3249 31.9812 14.1675 32.0152 15.0902C32.0493 15.9748 32.4907 16.2942 33.3336 16.0777C33.9313 15.9179 34.4916 15.6435 35.0489 15.3838C35.5148 15.1664 35.9849 15.0033 36.4926 14.9166C37.4527 14.7547 38.3128 15.2057 38.5845 16.1466C39.1208 17.9887 38.7991 19.7084 37.5762 21.1824C36.8609 22.0431 35.865 21.9687 34.8957 21.7243C34.2423 21.5598 33.6094 21.2928 32.9531 21.1049C32.2113 20.8918 31.808 21.0228 31.4265 21.6848C30.7801 22.8038 30.4002 24.0232 30.4839 25.3377C30.5328 26.1108 30.8354 26.2949 31.5581 26.0004C32.7495 25.512 33.8371 24.8268 34.9737 24.2356C36.0595 23.6721 37.1323 23.0984 38.3521 22.8828C39.83 22.621 40.7097 23.3508 40.7452 24.869C40.7791 26.3945 40.458 27.8854 40.2992 29.3943L40.2832 29.3987Z" fill="#101010"/>
<path opacity="0.3" d="M117.224 8.58487C117.003 9.72254 116.53 10.7701 116.16 11.8619C114.557 16.5926 113.569 21.4115 114.189 26.4528C114.292 27.2598 114.294 28.0768 114.244 28.8907C114.155 30.4291 113.175 31.4036 111.654 31.2062C109.706 30.9519 107.783 31.0234 105.849 31.1917C104.006 31.3558 102.88 30.0109 103.218 28.1342C103.425 26.9863 104.003 25.983 104.49 24.9457C105.23 23.3576 106.102 21.827 106.586 20.1253C106.988 18.7197 107.199 17.2901 107.361 15.8428C107.611 13.6124 107.576 11.377 107.381 9.14703C107.328 8.51032 107.358 7.86795 107.411 7.23004C107.536 5.81345 108.419 4.90332 110.07 4.53195C111.334 4.24908 112.614 4.33588 113.897 4.36988C114.339 4.38419 114.773 4.43514 115.202 4.59169C116.89 5.20461 117.629 6.48547 117.281 8.26086C117.259 8.37081 117.237 8.48077 117.215 8.59072L117.224 8.58487Z" fill="#101010"/>
<path opacity="0.3" d="M80.9314 8.19109C80.6291 9.66297 80.0229 10.9581 79.5933 12.3123C78.1441 16.8381 77.2761 21.4372 77.8777 26.2306C77.9758 27.0214 77.9811 27.8238 77.9342 28.623C77.8421 30.0998 76.9847 30.9543 75.5133 30.9198C74.6347 30.9 73.7537 30.7424 72.8723 30.6991C71.8112 30.6495 70.7612 30.8082 69.7084 30.9053C68.6107 31.0009 67.6908 30.6979 67.122 29.6961C66.6817 28.9191 66.7881 28.0863 67.0554 27.2787C67.5886 25.6329 68.4274 24.1183 69.1952 22.5816C70.3111 20.3608 70.8083 17.9903 71.0579 15.5384C71.2895 13.289 71.2791 11.0433 71.0743 8.78841C71.0135 8.15021 71.0514 7.50933 71.1181 6.87439C71.2382 5.78488 71.7795 5.00297 72.7997 4.57869C73.5979 4.24626 74.4218 4.04883 75.2916 4.07447C76.1774 4.09575 77.0561 4.03927 77.9388 4.11334C80.574 4.32526 81.4692 6.40884 80.9372 8.1999L80.9314 8.19109Z" fill="#101010"/>
</g>
<defs>
<clipPath id="clip0_21666_51">
<rect width="119" height="36" fill="white"/>
</clipPath>
</defs>
</svg>
