<svg width="40" height="30" viewBox="0 0 40 30" fill="none" xmlns="http://www.w3.org/2000/svg">
<g clip-path="url(#clip0_426_7719)">
<path d="M22.4156 13.8379H19.8203V16.7188H22.4156V13.8379Z" fill="#F61E26"/>
<path d="M22.4156 17.5113H19.8203V23.0372H22.4156V17.5113Z" fill="#F61E26"/>
<path d="M25.7985 17.5113H23.2031V23.0372H25.7985V17.5113Z" fill="#F61E26"/>
<path d="M25.7985 13.8379H23.2031V16.7188H25.7985V13.8379Z" fill="#F61E26"/>
<path d="M31.5958 26.2507H8.40352V11.7408L4.67578 15.4899V30H35.3225V15.4894L31.5958 11.7402V26.2507Z" fill="#F61E26"/>
<path d="M25.8071 5.8449L23.1719 8.49607L30.9667 16.3371V11.0349L25.8071 5.8449Z" fill="#F61E26"/>
<path d="M20.011 5.3154L22.6463 2.66398L19.9979 0L8.94141 11.1221V16.4241L19.9979 5.30246L20.011 5.3154Z" fill="#F61E26"/>
<path d="M13.925 5.58663L16.8339 2.66022L14.2018 0.0128174L0 14.2984L2.63548 16.9496L13.9288 5.58977L13.925 5.58663Z" fill="#F61E26"/>
<path d="M25.7979 0.0128174L8.94343 16.9496L8.90234 22.3102L25.7979 5.31478L37.3642 16.9496L40.0002 14.2984L25.7979 0.0128174Z" fill="#F61E26"/>
</g>
<defs>
<clipPath id="clip0_426_7719">
<rect width="40" height="30" fill="white"/>
</clipPath>
</defs>
</svg>
